<?xml version="1.0" standalone="no"?>
<!DOCTYPE svg PUBLIC "-//W3C//DTD SVG 20010904//EN"
 "http://www.w3.org/TR/2001/REC-SVG-20010904/DTD/svg10.dtd">
<svg version="1.0" xmlns="http://www.w3.org/2000/svg"
 width="700.000000pt" height="700.000000pt" viewBox="0 0 700.000000 700.000000"
 preserveAspectRatio="xMidYMid meet">
<metadata>
Created by potrace 1.11, written by Peter Selinger 2001-2013
</metadata>
<g transform="translate(0.000000,700.000000) scale(0.100000,-0.100000)"
fill="#000000" stroke="none">
<path d="M4689 6233 c-61 -37 -79 -123 -41 -185 33 -52 55 -60 192 -69 363
-23 675 -140 956 -357 379 -293 599 -713 635 -1210 10 -152 22 -183 79 -213
70 -38 147 -11 184 65 18 37 18 48 8 182 -13 156 -20 198 -59 349 -174 685
-721 1228 -1408 1399 -220 54 -490 74 -546 39z"/>
<path d="M4724 5449 c-67 -18 -112 -97 -93 -161 22 -75 61 -97 190 -109 254
-22 476 -136 623 -320 122 -154 176 -287 197 -490 12 -118 30 -158 83 -183 43
-20 69 -20 112 0 37 18 67 54 77 93 8 33 -10 222 -29 296 -101 399 -409 717
-809 834 -123 35 -294 55 -351 40z"/>
<path d="M3431 4979 c-410 -29 -833 -211 -1135 -488 -151 -138 -317 -351 -401
-513 l-29 -56 -91 -17 c-275 -50 -521 -180 -726 -384 -212 -212 -329 -415
-395 -687 -45 -186 -48 -428 -9 -619 105 -511 495 -937 990 -1080 220 -63 114
-60 1955 -60 1554 0 1681 1 1760 17 360 74 632 275 787 583 75 147 103 260
110 440 6 157 -4 242 -43 367 -99 315 -333 567 -639 688 -44 18 -83 36 -86 42
-4 5 -9 40 -13 77 -35 343 -185 707 -408 988 -387 487 -988 746 -1627 702z
m408 -105 c429 -60 811 -265 1093 -589 255 -292 402 -631 449 -1038 11 -103
13 -109 38 -118 218 -80 310 -132 429 -243 126 -118 226 -279 278 -452 25 -82
28 -103 28 -264 1 -182 -6 -226 -55 -358 -110 -301 -351 -517 -684 -614 l-80
-23 -1705 -3 c-1235 -2 -1726 0 -1780 8 -440 67 -796 322 -998 717 -98 193
-143 383 -143 608 0 165 18 277 67 425 69 205 175 370 344 534 207 200 418
308 693 356 60 10 110 20 111 22 2 1 26 46 54 98 179 335 454 599 797 767 338
165 685 220 1064 167z"/>
<path d="M3386 4719 c-246 -28 -521 -131 -723 -271 -255 -176 -442 -389 -567
-648 -26 -52 -55 -102 -66 -111 -11 -10 -48 -19 -92 -23 -287 -28 -523 -139
-723 -340 -241 -243 -359 -548 -342 -884 23 -429 260 -792 642 -982 144 -72
251 -103 405 -121 63 -7 118 -16 121 -21 3 -5 734 -7 1625 -5 1504 2 1624 4
1684 20 295 80 492 247 597 507 81 199 76 457 -11 654 -99 224 -312 402 -551
461 -88 22 -102 29 -125 68 -14 23 -20 50 -20 94 0 81 -26 267 -51 365 -134
530 -542 974 -1064 1156 -219 77 -505 108 -739 81z m-42 -1710 l26 -31 0 -224
0 -224 109 0 c103 0 111 -1 140 -26 17 -14 31 -30 31 -35 0 -5 -70 -9 -159 -9
-132 0 -162 3 -175 16 -14 13 -16 54 -16 290 0 158 4 274 9 274 5 0 21 -14 35
-31z m1589 -36 c-7 -2 -19 -2 -25 0 -7 3 -2 5 12 5 14 0 19 -2 13 -5z m-2450
-104 c43 -12 101 -59 123 -100 7 -15 14 -30 14 -34 0 -15 -33 -1 -70 30 -71
59 -157 69 -214 24 -57 -45 -72 -125 -36 -185 20 -31 90 -74 121 -74 37 0 94
25 128 56 34 30 71 45 71 28 0 -27 -61 -99 -103 -120 -36 -19 -124 -20 -167
-1 -107 45 -152 174 -97 277 26 50 56 75 113 95 48 17 68 18 117 4z m-644 -48
c19 -26 21 -43 21 -174 0 -137 -1 -147 -21 -161 -16 -11 -27 -12 -43 -5 -11 6
-75 70 -141 144 l-120 134 -3 -140 c-1 -81 -7 -139 -12 -139 -6 0 -19 9 -30
20 -18 18 -20 33 -20 191 l0 170 27 -3 c22 -2 55 -36 153 -152 l125 -149 3
157 c2 150 3 156 22 146 10 -5 28 -23 39 -39z m249 37 c6 -7 40 -87 77 -178
37 -91 72 -171 78 -178 14 -18 2 -26 -28 -18 -16 4 -31 20 -43 44 l-17 37 -93
3 -92 3 -11 -28 c-14 -38 -38 -63 -61 -63 -10 0 -18 2 -18 3 0 5 150 348 161
369 11 21 32 23 47 6z m887 -18 c75 -46 108 -135 85 -229 -20 -84 -104 -142
-205 -142 -122 0 -205 81 -205 201 0 83 50 155 130 189 42 18 153 7 195 -19z
m1248 -7 c23 -15 51 -48 64 -74 22 -42 24 -58 25 -215 1 -136 -2 -175 -15
-199 -52 -100 -174 -142 -272 -95 -53 25 -68 38 -94 80 -35 59 -22 68 31 21
49 -42 76 -53 127 -54 58 -1 125 33 146 73 8 16 15 55 15 89 l0 60 -45 -26
c-112 -62 -273 -3 -305 112 -28 102 10 193 102 240 72 36 160 32 221 -12z
m192 -16 c3 -12 4 -96 3 -187 -3 -163 -3 -165 -26 -168 -12 -2 -24 3 -27 10
-2 7 -6 99 -7 204 l-3 192 27 -14 c15 -8 30 -24 33 -37z m353 22 c40 -20 102
-93 102 -121 0 -17 -31 -7 -62 21 -48 41 -71 51 -123 51 -55 0 -93 -18 -129
-60 -67 -80 7 -200 123 -200 51 0 86 14 128 50 32 29 63 39 63 22 0 -4 -13
-29 -29 -54 -36 -57 -96 -88 -169 -88 -91 0 -159 40 -193 115 -49 105 3 230
111 274 45 18 130 13 178 -10z m-1553 -70 c16 -30 21 -139 7 -139 -5 0 -17 9
-28 21 -13 15 -20 40 -22 90 -4 61 -2 69 12 63 9 -4 23 -19 31 -35z"/>
<path d="M2035 2704 c-19 -42 -35 -80 -35 -85 0 -5 34 -9 75 -9 41 0 75 4 75
9 0 13 -69 161 -75 161 -3 0 -21 -34 -40 -76z"/>
<path d="M2795 2796 c-16 -7 -41 -26 -55 -41 -21 -22 -25 -37 -25 -85 0 -48 4
-63 25 -85 36 -39 73 -55 124 -55 37 0 52 6 81 31 38 34 65 77 65 105 0 10 -9
37 -21 60 -33 70 -122 102 -194 70z"/>
<path d="M4067 2823 c-43 -7 -103 -73 -112 -122 -9 -52 24 -125 69 -152 44
-27 114 -25 157 4 137 91 50 295 -114 270z"/>
</g>
</svg>
